<?xml version="1.0" standalone="no"?>
<!DOCTYPE svg PUBLIC "-//W3C//DTD SVG 20010904//EN"
 "http://www.w3.org/TR/2001/REC-SVG-20010904/DTD/svg10.dtd">
<svg version="1.0" xmlns="http://www.w3.org/2000/svg"
 width="1280.000000pt" height="1280.000000pt" viewBox="0 0 1280.000000 1280.000000"
 preserveAspectRatio="xMidYMid meet">

<g transform="translate(0.000000,1280.000000) scale(0.100000,-0.100000)"
fill="#000000" stroke="none">
<path d="M6075 9940 c-397 -34 -841 -158 -1220 -342 -361 -174 -673 -397 -965
-688 -551 -549 -893 -1234 -1011 -2025 -27 -179 -37 -605 -20 -793 30 -310 89
-587 188 -867 178 -505 463 -957 842 -1335 567 -565 1238 -897 2056 -1017 173
-25 726 -25 905 0 566 79 1038 255 1505 561 351 230 691 557 937 901 331 464
540 986 630 1577 19 125 22 186 22 483 1 275 -2 363 -17 460 -121 820 -454
1493 -1017 2055 -282 283 -564 487 -908 659 -423 212 -842 332 -1292 371 -131
11 -500 11 -635 0z m765 -134 c225 -33 375 -66 555 -120 1240 -377 2167 -1424
2389 -2701 64 -373 63 -811 -5 -1195 -175 -989 -802 -1874 -1684 -2375 -413
-235 -851 -376 -1335 -430 -179 -20 -544 -20 -720 0 -805 92 -1504 426 -2065
989 -464 465 -770 1015 -919 1649 -114 487 -116 1038 -5 1532 269 1200 1174
2173 2354 2531 203 61 397 100 638 129 152 19 651 13 797 -9z"/>
<path d="M6630 8561 c-8 -4 -37 -14 -65 -21 -55 -15 -75 -31 -93 -73 -16 -38
-15 -102 2 -117 15 -12 11 -39 -8 -52 -5 -3 -11 -60 -12 -128 -2 -132 -5 -124
57 -143 14 -4 15 -13 7 -54 -5 -26 -11 -106 -13 -178 -3 -71 -9 -150 -15 -175
-12 -55 -10 -90 6 -90 7 0 33 9 58 20 46 19 46 19 46 69 0 27 10 91 21 143 23
98 38 140 39 103 0 -11 12 -71 27 -133 25 -102 30 -113 48 -108 13 4 31 -5 54
-27 25 -23 32 -27 26 -12 -4 11 -11 113 -16 227 -4 114 -12 216 -18 227 -17
31 -14 111 4 111 17 0 21 26 4 32 -6 2 -7 12 -2 26 l9 23 29 -26 c36 -31 66
-40 103 -30 62 15 94 17 122 5 17 -7 30 -15 30 -18 0 -11 -119 -469 -129 -493
-18 -48 -43 -160 -37 -166 10 -10 16 2 31 53 15 53 116 426 140 514 8 30 15
62 15 71 0 9 7 19 15 23 23 8 36 52 25 81 -11 30 -27 32 -54 6 -19 -17 -26
-18 -71 -8 -27 6 -52 14 -55 18 -3 3 -23 9 -45 13 -62 12 -75 29 -75 102 0 77
-14 94 -75 94 -34 0 -43 3 -39 14 3 8 -1 28 -10 44 -20 39 -52 52 -86 33z"/>
<path d="M6110 8011 c-15 -4 -31 -19 -40 -38 -13 -28 -20 -33 -51 -33 -21 0
-47 -8 -60 -19 -19 -15 -34 -17 -91 -13 l-69 5 -40 -39 c-21 -21 -39 -46 -39
-56 0 -19 37 -95 50 -103 5 -3 11 -18 15 -34 3 -16 13 -35 21 -42 8 -6 14 -20
14 -30 0 -11 4 -19 9 -19 5 0 7 10 4 21 -4 16 -2 20 8 17 21 -7 16 -217 -6
-275 -9 -24 -21 -43 -27 -43 -6 0 -8 -7 -5 -14 5 -13 -29 -105 -83 -223 -16
-35 -17 -43 -6 -43 13 0 37 51 61 128 13 43 13 18 0 -51 -7 -37 -10 -69 -6
-71 10 -7 96 11 136 28 38 16 44 43 8 38 -29 -4 -38 27 -14 49 11 10 30 46 42
78 12 33 30 67 40 77 10 9 28 45 39 80 12 35 26 66 31 69 20 13 7 -74 -23
-158 -18 -52 -27 -91 -22 -96 5 -5 33 -12 62 -15 45 -5 58 -3 84 16 29 20 30
22 11 29 -20 7 -20 8 -2 84 23 99 33 178 25 210 -4 15 -29 40 -66 65 -54 37
-59 42 -47 60 6 11 21 20 33 20 12 0 41 7 64 15 23 8 45 15 48 15 3 0 2 -46
-3 -102 -10 -143 -11 -238 -2 -238 4 0 7 10 7 23 1 93 21 311 29 321 15 18 2
106 -15 106 -8 0 -14 -8 -14 -18 0 -38 -29 -62 -76 -62 l-44 0 0 65 c0 56 2
65 18 65 10 0 28 9 41 21 12 11 28 18 36 15 18 -7 30 11 17 27 -5 7 -12 24
-16 39 -8 33 -51 57 -86 49z m-213 -460 c9 -15 10 -28 2 -50 -15 -42 -29 -30
-29 25 0 48 8 55 27 25z m-42 -226 c-8 -21 -18 -36 -21 -33 -2 3 3 22 12 42
23 47 30 39 9 -9z m-35 -94 c-6 -23 -15 -41 -20 -41 -5 0 -2 20 8 45 20 54 27
52 12 -4z"/>
<path d="M5386 7665 c-8 -8 -17 -23 -20 -33 -4 -10 -22 -26 -41 -35 -28 -14
-39 -15 -55 -5 -15 10 -25 8 -52 -6 -26 -14 -39 -16 -54 -8 -38 20 -120 -56
-84 -78 9 -6 5 -18 -14 -46 -14 -21 -26 -45 -26 -52 0 -7 -7 -20 -15 -28 -22
-23 -17 -102 6 -88 5 3 9 -1 9 -9 0 -9 19 -20 47 -28 28 -9 48 -21 51 -31 2
-10 10 -18 17 -18 14 0 25 -22 25 -48 0 -15 24 -73 54 -133 10 -20 11 -29 1
-42 -7 -9 -16 -13 -20 -9 -5 4 -5 2 -2 -4 9 -16 -111 -174 -141 -185 -8 -3
-17 -21 -19 -39 -3 -27 -1 -32 9 -22 19 19 30 14 17 -7 -7 -10 -9 -26 -6 -35
7 -16 52 -22 61 -8 3 5 36 21 74 36 68 26 71 29 100 89 17 34 36 85 43 112 26
109 32 99 21 -38 -6 -80 -5 -97 6 -97 17 0 66 33 110 74 29 27 32 35 32 85 -1
31 -8 74 -16 96 -14 36 -25 69 -54 159 -7 22 -5 34 8 52 9 13 22 24 29 24 21
0 43 31 43 61 0 23 -4 29 -22 29 -37 1 -54 22 -57 69 -1 25 -6 51 -10 59 -6
11 0 23 19 41 30 27 47 84 36 119 -6 19 -52 42 -82 42 -7 0 -19 -7 -28 -15z
m41 -267 c-3 -8 -6 -5 -6 6 -1 11 2 17 5 13 3 -3 4 -12 1 -19z m22 -105 c-7
-10 -15 -20 -16 -22 -2 -2 -3 5 -3 17 0 14 6 22 16 22 14 0 15 -3 3 -17z
m-215 -365 c-26 -44 -119 -168 -126 -168 -8 0 19 44 47 77 5 7 26 33 45 58 34
44 49 58 34 33z"/>
<path d="M8038 7508 c-5 -173 -15 -199 -100 -265 -97 -75 -118 -150 -77 -286
l21 -70 138 7 c116 6 143 5 169 -8 37 -19 43 -30 81 -143 74 -224 96 -246 290
-299 130 -35 204 -91 232 -175 97 -286 160 -429 188 -429 17 0 220 -211 239
-249 22 -43 65 -191 57 -198 -8 -8 -107 18 -151 40 -22 10 -67 39 -101 63 -33
23 -99 60 -146 82 -117 54 -160 112 -178 243 -9 65 -15 77 -54 119 -55 59 -62
72 -81 158 -9 39 -22 75 -28 80 -7 5 -34 13 -62 17 -47 6 -112 30 -330 121
-87 36 -92 37 -207 35 -130 -2 -171 6 -270 50 -38 17 -76 29 -85 27 -9 -2 -41
-37 -70 -78 -29 -41 -74 -95 -100 -120 -27 -25 -65 -75 -85 -111 -21 -36 -55
-84 -77 -107 -22 -23 -50 -60 -61 -83 -12 -23 -25 -37 -29 -33 -4 5 -20 40
-36 77 -36 88 -64 130 -96 141 -45 15 -122 -29 -234 -136 -56 -52 -134 -114
-175 -139 -41 -24 -105 -65 -143 -90 -81 -56 -218 -117 -283 -126 l-48 -6 33
59 c46 81 53 89 161 159 241 156 422 315 510 448 44 66 56 102 75 230 12 75
20 97 58 155 24 37 78 119 120 182 41 63 98 137 126 165 28 27 51 54 51 60 -1
5 -24 29 -53 52 -29 23 -92 78 -142 123 -109 100 -182 156 -257 198 -32 18
-60 32 -62 32 -9 0 86 -165 149 -260 35 -52 62 -96 61 -97 -1 -1 -32 2 -69 7
-99 15 -202 -11 -304 -76 -29 -19 -79 -47 -111 -63 -81 -41 -111 -68 -167
-153 -27 -40 -83 -109 -126 -153 -71 -74 -109 -125 -93 -125 11 0 147 114 204
171 30 31 91 83 134 115 43 33 96 72 117 88 36 27 210 84 209 68 -1 -4 -30
-41 -65 -82 -36 -41 -84 -102 -107 -135 -23 -33 -89 -110 -147 -171 -61 -63
-121 -137 -141 -173 -71 -127 -94 -154 -191 -221 -110 -76 -154 -118 -202
-192 -48 -74 -60 -83 -191 -138 -94 -39 -128 -59 -177 -104 -58 -54 -86 -70
-77 -43 3 6 20 57 38 112 18 55 43 111 56 126 13 14 24 34 24 45 0 40 30 120
70 186 38 63 53 128 30 128 -5 0 -25 -22 -42 -49 -22 -33 -54 -62 -95 -88 -51
-31 -67 -47 -87 -89 -20 -41 -35 -57 -78 -82 -29 -16 -79 -57 -112 -91 -54
-56 -195 -170 -354 -286 -36 -26 -75 -65 -90 -90 -15 -24 -31 -45 -36 -45 -5
0 -36 19 -70 42 -114 77 -171 113 -211 133 -22 11 -74 54 -115 95 -65 64 -88
80 -160 109 -47 19 -116 56 -155 81 -202 135 -287 180 -338 180 -75 0 -160
-69 -244 -198 -29 -46 -78 -110 -108 -142 -30 -33 -55 -67 -55 -75 0 -36 -33
-74 -95 -114 -78 -48 -77 -30 -13 -231 193 -606 536 -1121 1028 -1541 402
-343 951 -610 1470 -713 264 -53 354 -61 680 -61 266 1 324 4 450 24 393 61
681 151 1015 316 714 354 1268 941 1586 1680 l51 120 -12 65 c-35 188 -41 235
-44 350 -2 69 -9 141 -16 160 -7 19 -38 66 -69 104 -137 168 -250 325 -289
401 -11 23 -38 101 -61 174 -45 150 -26 124 -270 376 -138 143 -197 223 -241
328 -40 96 -54 113 -188 229 -59 51 -109 94 -112 97 -33 37 -150 141 -158 141
-6 0 -11 -58 -14 -142z m-3483 -2269 c164 -30 240 -128 239 -309 -1 -134 -47
-215 -152 -267 -52 -26 -66 -28 -167 -27 -122 0 -158 11 -220 65 -41 37 -63
75 -80 139 -10 41 -14 45 -44 48 l-32 3 3 -73 c3 -72 3 -73 33 -78 20 -4 30
-11 29 -23 0 -9 -1 -30 -2 -47 l-2 -30 -164 0 -164 0 -7 40 c-8 50 -4 56 45
64 l40 6 -2 187 -3 188 -38 6 c-48 8 -50 10 -42 58 l7 41 163 0 163 0 5 -37
c5 -45 -6 -63 -39 -63 -23 0 -24 -3 -24 -65 l0 -65 33 0 c31 0 34 3 46 50 38
148 189 224 376 189z m1135 -53 c0 -46 -9 -56 -56 -56 l-24 0 0 -189 c0 -204
-1 -201 56 -201 22 0 24 -4 24 -50 l0 -50 -170 0 -170 0 0 49 c0 49 1 50 33
53 l32 3 3 188 2 187 -90 0 -90 0 2 -187 3 -188 30 -5 c28 -5 30 -8 30 -50 l0
-45 -167 -3 -168 -2 0 40 c0 22 0 43 -1 48 0 4 8 8 18 10 10 1 28 5 41 8 l22
4 -2 187 -3 187 -42 9 c-31 6 -40 12 -38 25 2 9 4 29 4 45 l1 27 360 0 360 0
0 -44z m520 -1 c0 -41 -2 -45 -27 -51 -16 -3 -34 -7 -41 -10 -10 -3 -13 -30
-11 -109 1 -58 5 -104 9 -103 14 6 180 197 180 207 0 6 -9 11 -19 11 -48 0
-60 21 -45 78 6 22 9 22 169 22 178 0 175 1 175 -61 0 -29 -5 -32 -65 -41 -19
-3 -20 -12 -23 -190 l-2 -188 41 -6 c46 -8 54 -19 45 -69 l-7 -35 -164 0 -163
0 -7 40 c-8 45 -2 60 25 60 47 0 50 6 50 119 l0 106 -43 -45 c-154 -164 -163
-179 -99 -180 20 0 22 -5 22 -50 l0 -50 -170 0 -170 0 0 49 0 48 40 7 40 6 0
190 0 190 -24 0 c-47 0 -56 10 -56 56 l0 44 170 0 170 0 0 -45z m1215 -97
l-10 -142 -60 3 c-33 1 -63 5 -68 8 -4 3 -5 40 -1 84 l7 79 -47 0 -46 0 0
-184 0 -185 70 -7 c39 -4 73 -11 76 -16 3 -5 3 -27 -1 -48 l-7 -40 -239 0
-239 0 -1 35 c-1 19 -2 41 -3 47 -1 8 26 16 74 23 l75 10 3 183 2 182 -50 0
-51 0 3 -82 3 -83 -62 -3 c-35 -2 -64 -2 -64 0 -1 2 -6 65 -13 141 l-11 137
335 0 335 0 -10 -142z m745 115 c0 -45 -19 -205 -24 -210 -3 -3 -30 -2 -61 2
l-55 6 0 60 0 59 -75 0 -75 0 0 -57 0 -58 52 0 53 0 2 -57 2 -58 -55 0 -54 0
0 -70 0 -70 75 0 75 0 0 74 0 74 61 4 c34 1 62 1 64 -2 2 -3 6 -62 10 -132 l7
-128 -280 0 -279 0 -7 41 c-8 49 -3 59 32 59 52 0 53 2 50 201 l-3 184 -38 6
c-20 3 -40 8 -42 11 -3 3 -3 24 1 47 l7 41 278 0 279 0 0 -27z m712 0 c76 -35
112 -123 88 -211 -25 -95 -90 -133 -237 -140 l-103 -5 0 -47 c0 -47 0 -47 38
-54 20 -3 50 -6 65 -6 27 0 28 -1 25 -47 l-3 -48 -196 -3 -196 -2 -6 42 c-3
23 -4 45 -2 49 3 3 23 9 45 13 l40 6 -2 187 -3 187 -44 9 c-42 8 -43 10 -37
39 3 17 6 37 6 45 0 12 36 14 238 11 219 -3 241 -5 284 -25z m-4212 -918 c0
-12 -13 -15 -60 -15 l-60 0 0 -128 c0 -108 -2 -129 -15 -129 -13 0 -15 23 -15
144 l0 143 75 0 c60 0 75 -3 75 -15z m243 6 c42 -16 87 -69 88 -104 3 -77 -19
-135 -44 -121 -7 4 -9 4 -5 -1 13 -13 -12 -34 -52 -45 -47 -13 -105 7 -141 48
-34 40 -39 127 -8 166 45 57 105 78 162 57z m336 -20 c24 -22 31 -38 31 -65 0
-70 -46 -106 -136 -106 l-44 0 0 -46 c0 -30 -4 -44 -12 -42 -10 4 -13 105 -8
276 0 8 21 12 69 12 62 0 72 -3 100 -29z m123 -33 l3 -63 65 0 65 0 3 63 c3
61 15 80 27 42 3 -11 5 -74 4 -139 -2 -89 -6 -122 -16 -125 -13 -5 -18 39 -13
102 1 21 -2 22 -59 22 -34 0 -64 0 -68 0 -5 0 -10 -28 -13 -62 -3 -36 -10 -63
-17 -66 -10 -3 -13 29 -13 136 0 76 3 142 7 145 16 17 22 3 25 -55z m268 17
l0 -45 59 0 c55 0 61 -2 90 -35 33 -38 37 -58 21 -99 -16 -42 -66 -66 -137
-66 l-63 0 0 145 c0 122 2 145 15 145 11 0 15 -12 15 -45z m250 -101 c0 -112
-3 -145 -12 -142 -9 3 -14 41 -16 133 -3 132 0 155 18 155 6 0 10 -52 10 -146z
m230 131 c0 -10 -16 -15 -61 -17 -60 -3 -62 -4 -65 -33 -6 -52 3 -65 47 -65
56 0 54 -28 -2 -32 -41 -3 -42 -3 -44 -45 -2 -27 2 -43 9 -44 82 -3 106 -6
112 -12 17 -17 -18 -28 -81 -25 l-68 3 -2 135 c-2 74 -1 138 2 143 2 4 38 7
79 7 58 0 74 -3 74 -15z m442 -130 c0 -111 -3 -140 -14 -140 -10 0 -12 26 -9
128 l3 128 -73 -3 -74 -3 -3 -128 c-2 -96 -6 -127 -15 -124 -8 2 -13 45 -15
146 l-3 142 102 -3 101 -3 0 -140z m266 131 c52 -27 75 -62 79 -118 2 -31 -1
-63 -9 -77 -14 -26 -56 -61 -79 -65 -8 -1 -24 -6 -36 -10 -27 -9 -93 23 -122
60 -86 109 45 273 167 210z m212 -33 c14 -26 30 -48 35 -50 6 -1 23 20 40 47
16 28 35 50 42 50 19 0 17 -6 -22 -70 -19 -32 -35 -62 -35 -68 0 -6 16 -40 35
-75 39 -71 41 -77 21 -77 -7 0 -19 12 -25 28 -6 15 -22 41 -35 57 l-24 29 -25
-51 c-22 -43 -52 -72 -63 -60 -2 2 15 34 37 72 l40 68 -36 68 c-39 75 -40 79
-22 79 6 0 23 -21 37 -47z m406 27 c55 -27 78 -73 71 -144 -4 -43 -10 -55 -41
-82 -43 -37 -75 -45 -125 -32 -48 13 -89 53 -102 101 -14 52 -4 88 34 127 54
55 95 62 163 30z m365 -55 c17 -38 41 -94 55 -123 13 -29 24 -57 24 -62 0 -6
11 -10 25 -10 20 0 25 -5 25 -25 0 -25 -25 -36 -32 -13 -6 17 -289 18 -295 1
-9 -23 -33 -14 -33 12 0 20 5 25 24 25 17 0 28 9 40 34 9 19 16 36 16 39 0 3
20 49 45 102 32 70 49 96 60 93 9 -2 30 -34 46 -73z m219 30 l0 -45 58 0 c62
-1 86 -13 108 -56 42 -79 -15 -140 -133 -143 l-63 -1 0 145 c0 122 2 145 15
145 11 0 15 -12 15 -45z m250 -101 c0 -112 -3 -145 -12 -142 -10 3 -14 44 -16
146 -2 122 0 142 13 142 13 0 15 -22 15 -146z m-3032 -330 c21 -6 22 -10 22
-145 0 -117 -2 -139 -15 -139 -13 0 -15 21 -15 130 l0 130 -70 0 -70 0 0 -130
c0 -109 -2 -130 -15 -130 -13 0 -15 23 -15 145 l0 145 78 0 c42 0 87 -3 100
-6z m279 -9 c46 -19 67 -41 83 -87 38 -104 -59 -206 -167 -176 -77 21 -118 99
-94 177 13 45 34 66 87 85 50 19 48 19 91 1z m363 -55 c0 -38 4 -70 8 -70 4 0
28 27 53 59 24 33 54 64 67 70 12 6 22 9 22 6 0 -7 -44 -70 -68 -95 -12 -13
-22 -29 -22 -35 0 -6 25 -44 56 -83 47 -61 52 -72 35 -72 -13 0 -37 22 -68 65
l-48 64 -17 -22 c-10 -13 -18 -40 -18 -64 0 -32 -4 -43 -15 -43 -13 0 -15 22
-15 138 0 76 3 142 7 145 17 18 23 1 23 -63z m398 42 c2 -12 8 -22 13 -22 5 0
9 -6 9 -13 0 -7 11 -37 25 -65 21 -44 65 -151 65 -159 0 -2 -6 -3 -14 -3 -8 0
-21 18 -30 40 l-16 40 -65 0 c-36 0 -68 1 -72 1 -5 1 -17 -17 -27 -40 -19 -40
-54 -60 -43 -23 7 24 91 222 105 249 15 27 46 23 50 -5z m350 -7 c26 -31 28
-52 7 -82 -14 -20 -14 -25 1 -57 14 -29 15 -40 5 -64 -16 -38 -48 -52 -121
-52 l-60 0 0 138 c0 76 3 142 8 146 4 5 36 5 72 2 54 -4 69 -10 88 -31z m120
-41 c0 -36 2 -67 4 -70 2 -2 22 20 43 49 45 60 82 97 96 97 15 0 11 -8 -41
-76 l-49 -66 32 -41 c18 -23 42 -53 55 -67 25 -29 28 -40 8 -40 -8 0 -29 19
-48 43 -63 81 -66 83 -84 65 -9 -9 -17 -35 -18 -59 0 -24 -6 -44 -13 -47 -10
-3 -13 30 -13 142 0 119 2 144 14 140 9 -4 14 -25 14 -70z m436 -33 c81 -188
78 -181 60 -181 -9 0 -22 17 -31 40 l-16 40 -77 0 -78 0 -16 -40 c-9 -22 -23
-40 -31 -40 -8 0 -15 1 -15 3 0 5 115 261 122 273 18 28 38 5 82 -95z m245 86
c26 -21 32 -57 16 -90 -14 -29 -14 -34 1 -63 15 -27 15 -36 5 -62 -16 -37 -62
-59 -99 -46 -37 13 -24 30 20 26 33 -3 39 0 48 22 12 32 4 53 -21 61 -25 8
-24 41 0 55 11 5 23 19 26 30 10 31 -13 52 -53 48 -42 -3 -55 17 -20 31 25 10
55 5 77 -12z m163 -68 c18 -43 36 -79 39 -79 4 0 9 10 13 23 13 52 58 137 73
137 8 0 13 -6 10 -12 -59 -149 -114 -268 -124 -268 -16 0 -16 -1 -2 38 9 26 5
43 -30 128 -44 105 -49 126 -27 118 8 -3 30 -41 48 -85z"/>
<path d="M4413 5110 c-33 -30 -48 -88 -47 -181 0 -107 22 -157 78 -178 33 -12
41 -12 71 2 54 26 70 66 70 177 0 111 -6 137 -39 173 -32 34 -101 38 -133 7z"/>
<path d="M8630 5035 l0 -86 53 7 c70 9 87 25 87 85 0 59 -23 79 -92 79 l-48 0
0 -85z"/>
<path d="M4803 4246 c-43 -36 -53 -70 -37 -127 11 -36 21 -48 49 -62 46 -22
63 -21 103 3 45 28 68 82 53 130 -15 49 -42 71 -94 77 -36 4 -48 1 -74 -21z"/>
<path d="M5104 4256 c-3 -7 -4 -38 -2 -67 l3 -54 59 0 c69 1 88 18 84 77 -2
32 -6 39 -31 48 -43 15 -107 13 -113 -4z"/>
<path d="M5640 4111 l0 -70 56 4 c62 3 94 26 94 68 0 40 -39 67 -98 67 l-52 0
0 -69z"/>
<path d="M6713 4249 c-55 -35 -65 -115 -22 -168 15 -19 32 -25 72 -29 48 -4
56 -1 85 26 55 52 41 141 -28 177 -39 20 -69 19 -107 -6z"/>
<path d="M7324 4251 c-30 -18 -42 -42 -57 -109 -3 -12 -1 -20 4 -16 5 3 9 0 9
-7 0 -7 12 -26 27 -41 56 -58 164 -27 182 53 22 98 -80 172 -165 120z"/>
<path d="M7712 4152 c-23 -54 -42 -103 -42 -110 0 -13 175 -18 183 -4 6 9 -82
212 -92 212 -3 0 -25 -44 -49 -98z"/>
<path d="M8032 4113 l3 -68 54 2 c63 3 91 23 91 65 0 46 -31 68 -95 68 l-56 0
3 -67z"/>
<path d="M5401 3761 c-26 -25 -31 -36 -31 -76 0 -40 5 -52 34 -81 29 -29 39
-33 75 -30 78 7 118 54 107 131 -7 55 -45 85 -107 85 -38 0 -53 -6 -78 -29z"/>
<path d="M6232 3722 c-12 -32 -22 -61 -22 -65 0 -4 25 -7 56 -7 53 0 55 1 48
23 -15 46 -44 107 -51 107 -5 0 -18 -26 -31 -58z"/>
<path d="M6500 3751 l0 -51 49 0 c60 0 86 20 76 59 -9 34 -5 32 -69 38 l-56 5
0 -51z"/>
<path d="M6500 3620 l0 -50 50 0 c42 0 52 4 66 25 14 21 15 31 6 50 -10 22
-18 25 -67 25 l-55 0 0 -50z"/>
<path d="M7099 3723 c-13 -32 -25 -61 -27 -65 -4 -9 102 -11 110 -2 7 6 -42
124 -52 124 -3 0 -17 -26 -31 -57z"/>
<path d="M5095 7220 c3 -5 11 -10 16 -10 6 0 7 5 4 10 -3 6 -11 10 -16 10 -6
0 -7 -4 -4 -10z"/>
<path d="M4514 7170 c-11 -4 -34 -22 -50 -39 -21 -22 -38 -31 -61 -31 -46 0
-73 -30 -73 -80 0 -26 6 -42 16 -48 18 -10 10 -34 -9 -31 -36 4 -40 -1 -34
-45 5 -37 3 -46 -18 -64 -28 -25 -30 -31 -13 -67 7 -17 19 -25 35 -25 13 0 33
-5 44 -11 17 -9 20 -18 15 -59 -3 -27 -1 -52 4 -55 6 -4 10 9 10 28 0 30 3 34
20 30 11 -3 20 -12 20 -19 0 -8 12 -38 26 -66 58 -115 59 -120 15 -214 -30
-63 -48 -89 -72 -102 -62 -34 -73 -46 -65 -76 4 -16 16 -30 27 -33 17 -5 18
-11 13 -42 -7 -33 -6 -35 9 -22 14 11 20 11 32 1 12 -10 20 -9 39 4 22 14 23
19 14 44 -15 38 8 117 41 143 13 11 25 18 27 16 2 -1 -4 -36 -12 -76 -8 -40
-14 -77 -12 -83 6 -17 78 52 84 81 3 14 16 62 29 106 33 118 48 211 40 251
-13 74 -13 133 1 145 11 9 14 7 14 -10 0 -11 5 -21 10 -21 7 0 8 18 4 50 -5
34 -3 50 5 50 6 0 11 7 11 16 0 14 7 16 40 11 33 -4 47 0 82 24 67 45 70 40
39 -57 -31 -97 -109 -367 -116 -403 -11 -52 10 -29 28 31 9 29 42 141 73 248
35 121 65 204 77 218 17 18 19 27 10 40 -13 21 -49 19 -105 -7 -44 -20 -62
-17 -88 14 -11 13 -10 18 4 33 9 10 16 24 16 30 0 6 9 14 20 17 25 8 27 47 3
66 -57 46 -85 49 -118 13 l-25 -26 -10 26 c-5 15 -10 34 -10 42 0 8 -16 22
-35 30 -39 16 -42 16 -71 4z m2 -756 c-4 -9 -9 -15 -11 -12 -3 3 -3 13 1 22 4
9 9 15 11 12 3 -3 3 -13 -1 -22z"/>
</g>
</svg>
